<?xml version="1.0" standalone="no"?>
<!DOCTYPE svg PUBLIC "-//W3C//DTD SVG 20010904//EN"
 "http://www.w3.org/TR/2001/REC-SVG-20010904/DTD/svg10.dtd">
<svg version="1.0" xmlns="http://www.w3.org/2000/svg"
 width="1202.000000pt" height="1280.000000pt" viewBox="0 0 1202.000000 1280.000000"
 preserveAspectRatio="xMidYMid meet">
<metadata>
Created by potrace 1.15, written by Peter Selinger 2001-2017
</metadata>
<g transform="translate(0.000000,1280.000000) scale(0.100000,-0.100000)"
fill="#000000" stroke="none">
<path d="M5635 12660 c-97 -19 -280 -80 -422 -142 -24 -10 -47 -18 -53 -18 -5
0 -10 -4 -10 -9 0 -5 -10 -13 -22 -17 -32 -10 -150 -87 -228 -149 -77 -61
-229 -220 -250 -261 -8 -16 -31 -51 -52 -78 -20 -27 -49 -74 -64 -105 -16 -31
-34 -63 -41 -72 -13 -15 -66 -122 -117 -231 -14 -32 -37 -82 -51 -112 -14 -30
-25 -57 -25 -60 0 -3 -29 -67 -65 -141 -36 -75 -65 -142 -65 -148 0 -7 -7 -21
-15 -31 -8 -11 -15 -26 -15 -34 0 -8 -13 -42 -30 -76 -16 -33 -48 -112 -70
-174 -21 -62 -46 -125 -55 -140 -9 -15 -31 -72 -49 -127 -38 -114 -19 -101
-201 -141 -171 -38 -238 -79 -273 -169 -16 -40 -18 -193 -4 -282 7 -40 17
-106 23 -145 19 -134 40 -226 59 -266 11 -22 22 -54 25 -71 l6 -32 -34 25
c-19 15 -54 37 -78 50 -24 12 -64 34 -89 47 -155 85 -429 102 -634 39 -103
-32 -236 -145 -281 -237 -10 -21 -22 -47 -28 -58 -33 -66 -87 -278 -87 -345
l0 -38 -62 33 c-35 19 -88 43 -118 55 -30 12 -83 34 -116 50 -175 81 -401 105
-603 65 -110 -22 -154 -45 -283 -147 -89 -71 -160 -235 -162 -373 0 -44 -5
-83 -11 -87 -6 -5 -6 -8 1 -8 8 0 10 -21 8 -62 -4 -71 12 -147 33 -155 12 -5
12 -7 2 -14 -17 -10 60 -143 142 -246 33 -42 58 -77 55 -80 -2 -2 -35 -13 -73
-23 -88 -23 -246 -81 -329 -121 -62 -29 -91 -52 -231 -177 -34 -31 -71 -61
-82 -66 -11 -6 -20 -15 -20 -21 0 -5 -8 -19 -18 -30 -62 -66 -146 -197 -143
-220 1 -3 -9 -31 -20 -63 -28 -73 -34 -247 -10 -262 11 -7 12 -10 2 -10 -10 0
-9 -4 3 -16 12 -12 13 -19 5 -24 -15 -9 -2 -59 23 -87 11 -13 17 -29 13 -38
-14 -37 78 -187 182 -297 78 -82 207 -165 300 -194 83 -26 245 -34 283 -14 28
16 24 -1 -19 -67 -45 -70 -64 -119 -110 -283 -30 -111 -34 -140 -36 -255 -3
-287 13 -408 64 -485 9 -14 20 -33 23 -43 4 -11 12 -15 18 -11 7 4 9 3 6 -3
-12 -18 88 -100 166 -137 101 -47 162 -63 289 -76 79 -9 131 -9 204 0 116 14
175 34 244 85 l50 37 -5 -47 c-4 -29 0 -62 9 -88 8 -23 22 -69 31 -102 10 -33
26 -79 36 -102 35 -77 148 -241 186 -270 21 -15 44 -34 52 -41 28 -27 133 -72
213 -92 45 -11 97 -25 113 -30 17 -5 89 -12 161 -16 118 -6 139 -4 203 15 111
34 244 117 283 178 13 20 18 23 22 12 69 -197 124 -343 155 -407 17 -34 31
-64 31 -67 0 -6 137 -293 172 -360 60 -115 116 -189 238 -318 47 -50 78 -88
69 -84 -9 3 -38 8 -65 12 -27 3 -71 12 -99 20 -27 7 -104 27 -170 43 -136 34
-174 45 -335 100 -63 22 -137 43 -165 46 -137 16 -206 17 -323 6 -197 -19
-322 -67 -410 -158 -85 -88 -148 -243 -168 -412 -2 -19 -6 -46 -9 -60 -2 -14
-7 -68 -10 -120 -6 -99 -22 -319 -30 -405 -21 -234 -30 -491 -29 -795 0 -229
4 -299 22 -420 24 -157 39 -210 76 -268 38 -59 61 -79 119 -100 134 -51 367
-64 552 -33 39 7 111 16 160 21 50 4 101 11 115 15 28 7 105 21 200 36 36 6
70 15 77 21 11 9 47 19 168 49 22 5 49 14 60 19 11 5 56 18 100 29 104 27 88
22 260 87 139 53 248 89 302 100 12 2 35 9 50 15 49 18 207 58 261 65 52 7
112 37 120 61 8 25 -44 37 -111 25 -89 -15 -192 -40 -267 -63 -36 -12 -87 -27
-115 -34 -49 -13 -228 -74 -395 -135 -47 -17 -132 -45 -190 -62 -58 -17 -148
-44 -200 -60 -192 -61 -687 -139 -835 -132 -114 5 -256 31 -285 53 -73 53
-110 172 -135 436 -8 83 -10 495 -2 620 4 72 10 180 13 240 3 61 10 155 15
210 5 55 14 165 19 245 13 190 19 269 24 300 2 14 7 48 10 75 17 118 84 270
147 333 49 49 147 98 228 114 31 7 142 12 246 12 l190 1 160 -53 c88 -30 180
-60 205 -67 85 -26 444 -97 502 -100 30 -2 54 -17 140 -91 140 -121 271 -204
323 -204 9 0 31 -11 48 -24 18 -13 55 -34 82 -48 28 -13 61 -31 75 -40 29 -20
149 -50 163 -41 20 12 -15 -37 -41 -59 -33 -27 -84 -130 -101 -203 -15 -67
-20 -144 -20 -308 l-1 -139 -187 7 c-205 8 -548 -11 -643 -35 -19 -4 -89 -9
-155 -9 -116 -1 -387 -24 -443 -37 -33 -8 -168 -78 -202 -104 -57 -45 45 -50
135 -7 75 37 183 55 360 62 175 7 507 31 541 38 46 11 395 19 497 12 l107 -7
0 -50 c0 -165 54 -507 97 -615 46 -115 91 -148 358 -264 108 -47 210 -66 400
-74 61 -3 173 -8 250 -11 157 -7 302 7 344 34 14 9 35 27 47 39 l21 22 34 -35
c23 -24 113 -75 284 -161 138 -69 257 -129 265 -133 26 -15 162 -76 255 -114
174 -73 210 -88 250 -105 36 -16 163 -49 255 -66 38 -7 197 -44 325 -75 44
-10 128 -27 187 -36 94 -16 117 -16 190 -5 113 18 212 51 255 85 27 22 32 31
22 38 -11 8 -10 8 4 4 22 -7 104 73 86 85 -8 5 -4 8 11 11 42 6 85 78 128 210
22 68 44 143 50 168 27 112 33 146 38 194 3 28 13 87 24 131 16 66 53 268 64
350 2 11 6 40 10 65 12 73 16 100 31 195 8 50 23 140 34 200 41 234 48 413 20
525 -23 88 -69 182 -113 228 -75 81 -279 170 -451 197 -135 22 -508 26 -630 8
-44 -7 -150 -17 -235 -24 -85 -6 -217 -17 -292 -25 -75 -8 -156 -14 -180 -14
l-43 0 35 22 c19 12 60 38 91 57 30 20 74 47 97 61 197 118 418 289 503 391
24 29 56 67 72 85 40 46 197 287 197 301 0 3 10 19 23 36 12 18 30 48 41 67
10 19 25 43 34 53 14 16 17 15 44 -25 16 -24 38 -59 48 -80 22 -41 75 -76 238
-158 60 -30 144 -62 199 -76 95 -24 339 -55 384 -48 13 2 62 8 109 15 116 15
195 36 249 65 55 29 84 47 91 55 3 3 27 18 55 33 27 14 45 26 40 27 -6 0 0 4
13 10 13 5 20 13 17 19 -3 5 -1 10 5 10 30 0 249 224 307 313 67 105 78 138
78 247 0 52 -4 108 -8 124 l-8 28 58 -8 c32 -5 100 -8 151 -7 91 3 97 4 205
57 126 62 225 123 309 191 66 53 175 194 200 257 9 24 31 79 48 123 27 71 56
230 58 324 2 78 -55 205 -125 276 -29 29 -40 46 -31 49 62 17 131 43 173 67
59 33 148 119 177 170 11 21 31 43 44 50 43 22 75 152 76 301 1 83 -5 127 -30
223 -33 133 -61 207 -77 201 -5 -2 -32 17 -58 41 -26 25 -75 57 -108 72 l-60
27 63 41 c35 23 89 68 121 101 55 58 57 63 57 114 1 46 2 51 14 36 7 -10 19
-18 27 -18 20 1 50 26 41 34 -4 4 -2 7 3 6 23 -5 45 1 45 11 0 7 8 19 19 28
58 51 121 247 121 378 0 151 -72 375 -157 489 -13 17 -23 36 -23 41 0 6 -20
32 -45 59 -25 26 -45 51 -45 55 0 11 -55 41 -154 83 -76 32 -106 39 -210 49
l-123 11 30 59 c24 48 30 73 30 126 0 127 -17 190 -67 256 -94 120 -235 226
-364 271 -305 106 -449 100 -661 -25 -53 -32 -71 -35 -55 -9 11 18 13 48 2 42
-5 -3 -7 6 -4 20 3 14 0 28 -5 32 -5 3 -7 10 -3 15 13 22 -49 124 -123 201
-89 91 -134 125 -213 157 -30 12 -64 26 -75 31 -73 34 -185 52 -330 53 -248 3
-398 -43 -625 -191 -47 -30 -95 -64 -107 -75 -13 -11 -23 -16 -23 -11 0 5 17
59 39 119 52 147 88 285 96 370 12 115 7 251 -11 318 -15 54 -26 71 -89 133
-61 60 -79 72 -130 86 -75 21 -230 44 -428 64 -54 5 -57 7 -56 32 1 15 -10 85
-25 156 -14 71 -29 149 -32 175 -8 69 -23 119 -56 188 -17 34 -28 68 -25 76
20 52 254 194 349 212 l35 7 6 -61 c6 -75 34 -131 94 -193 61 -62 127 -90 212
-90 114 1 210 35 319 114 l52 39 0 -30 c0 -89 41 -199 96 -255 58 -60 107 -79
196 -79 94 0 133 17 200 84 132 132 132 283 -1 452 -29 37 -47 67 -39 67 7 0
40 -10 73 -21 92 -31 104 -33 193 -32 184 3 299 76 357 224 66 166 4 273 -181
313 -97 21 -165 25 -247 15 -68 -9 -93 -5 -71 9 10 7 28 80 39 165 3 26 1 72
-5 102 -6 30 -11 57 -10 60 1 9 -28 60 -47 80 -47 52 -133 95 -190 95 -75 0
-160 -54 -227 -144 -29 -38 -66 -156 -66 -208 0 -21 -3 -38 -7 -38 -5 0 -32
37 -62 81 -87 130 -139 172 -248 200 -64 16 -125 4 -218 -43 -75 -38 -128 -88
-160 -151 -20 -41 -24 -62 -22 -123 2 -61 8 -84 39 -143 20 -39 33 -72 30 -74
-4 -2 -34 -9 -67 -16 -82 -17 -163 -47 -207 -76 -21 -14 -44 -25 -52 -25 -8 0
-17 -4 -20 -9 -3 -5 -32 -21 -63 -36 -32 -15 -78 -41 -103 -59 -64 -46 -145
-92 -136 -78 15 25 -18 100 -83 187 -37 50 -83 112 -102 139 -19 27 -52 75
-74 106 -85 121 -363 414 -481 506 -44 35 -116 82 -160 105 -43 24 -81 46 -84
49 -3 4 -23 13 -45 19 -22 7 -49 16 -60 21 -51 23 -140 40 -255 50 -193 17
-320 20 -375 10z m345 -95 c14 -3 63 -10 110 -16 213 -26 388 -123 585 -324
224 -228 302 -315 342 -381 10 -17 50 -73 89 -125 39 -52 79 -109 90 -126 10
-18 23 -33 28 -33 5 0 7 -3 3 -6 -7 -7 50 -121 63 -126 5 -2 -34 -34 -87 -73
-52 -38 -112 -84 -132 -101 l-36 -31 -95 9 c-120 12 -710 3 -850 -13 -108 -12
-335 -8 -580 11 -69 5 -360 8 -648 6 -367 -2 -521 1 -518 8 3 6 21 48 39 94
19 46 37 86 41 89 3 4 6 13 6 20 0 19 102 220 204 403 199 357 486 572 922
690 43 12 93 26 109 31 29 8 265 4 315 -6z m3070 -282 c33 -32 41 -47 48 -93
10 -69 -7 -201 -29 -226 -9 -11 -20 -26 -25 -36 -5 -9 -37 -46 -72 -82 l-63
-67 -34 26 c-18 15 -55 35 -82 45 -48 18 -48 18 -53 71 -12 127 24 261 87 326
50 51 92 72 146 73 30 0 46 -7 77 -37z m-675 -87 c28 -13 61 -36 75 -52 38
-42 104 -142 133 -200 l25 -50 -64 -29 c-59 -26 -134 -90 -177 -149 -11 -15
-22 -17 -58 -13 -86 11 -118 20 -135 38 -9 11 -23 19 -30 19 -20 0 -73 58 -93
103 -32 71 -36 138 -12 185 46 91 163 169 256 171 17 0 53 -10 80 -23z m1122
-401 c26 -9 59 -28 72 -42 20 -23 22 -34 17 -71 -3 -24 -17 -67 -32 -95 -56
-112 -117 -148 -264 -154 -89 -3 -103 -1 -210 35 l-115 38 -2 97 -2 97 61 36
c111 65 200 85 340 79 47 -3 108 -12 135 -20z m-811 -5 c6 -6 24 -13 40 -15
64 -11 75 -17 104 -57 25 -34 30 -51 30 -98 0 -51 -3 -60 -25 -74 -17 -11 -24
-23 -20 -35 3 -11 -7 -29 -31 -52 -34 -33 -37 -34 -109 -32 -88 2 -131 20
-179 73 -43 47 -55 98 -32 133 9 13 16 29 15 33 -4 23 5 35 53 69 81 59 132
77 154 55z m-537 -128 l41 -19 -30 -21 c-16 -12 -32 -22 -35 -22 -11 0 -118
-86 -149 -119 -24 -25 -38 -31 -70 -31 -41 0 -201 -51 -220 -70 -5 -5 -17 -10
-26 -10 -26 0 -188 -128 -289 -229 -83 -83 -248 -257 -374 -394 -21 -23 -50
-59 -63 -80 -24 -37 -83 -118 -105 -145 -16 -20 -164 -12 -163 8 3 52 147 323
217 407 67 82 276 276 372 345 134 96 319 209 475 290 137 71 176 85 265 97
93 13 110 12 154 -7z m211 -108 c29 -66 80 -123 149 -169 68 -43 68 -46 25
-120 -58 -100 -169 -162 -305 -172 -83 -5 -85 -5 -134 28 -36 25 -58 49 -77
89 -31 61 -33 75 -16 134 12 41 14 45 46 81 45 53 240 175 279 175 7 0 23 -21
33 -46z m576 -186 c139 -146 171 -256 109 -365 -57 -98 -94 -123 -187 -123
-73 0 -94 11 -135 73 -34 50 -54 133 -59 239 -3 63 9 138 21 138 33 0 114 26
151 49 27 16 51 30 54 30 3 1 24 -18 46 -41z m-3381 -223 c42 -11 581 -11 690
1 98 10 582 9 655 -1 l45 -6 -68 -71 c-85 -89 -182 -235 -254 -381 -30 -62
-63 -120 -73 -129 -10 -9 -20 -22 -22 -28 -5 -15 -67 -17 -823 -24 -570 -6
-820 -12 -882 -21 -12 -2 -91 -6 -175 -9 -84 -4 -209 -9 -278 -11 -69 -3 -174
-10 -233 -16 -59 -7 -110 -10 -112 -7 -6 6 13 75 31 115 8 17 14 34 14 37 0 3
8 25 19 49 17 39 42 106 86 232 10 28 28 73 40 100 12 28 30 70 40 95 10 25
24 51 30 58 8 9 64 16 181 21 206 11 1047 7 1089 -4z m1904 -158 c11 -34 25
-91 30 -127 13 -80 26 -149 48 -258 9 -45 14 -84 12 -86 -2 -3 -136 -2 -297 2
l-293 7 62 85 c34 47 137 163 228 258 91 95 168 177 169 182 7 20 21 -2 41
-63z m271 -560 c14 -4 66 -12 115 -18 185 -21 231 -30 282 -55 67 -32 118 -90
137 -155 22 -72 20 -125 -9 -359 -5 -41 -15 -86 -27 -120 -3 -8 -22 -69 -44
-135 -21 -66 -50 -149 -65 -185 -14 -36 -29 -82 -33 -102 -4 -21 -13 -50 -21
-65 -8 -15 -12 -35 -10 -45 14 -44 -91 -228 -131 -228 -7 0 -19 -9 -27 -20
-18 -26 -94 -60 -135 -60 -18 0 -61 -6 -95 -14 -34 -8 -98 -19 -142 -25 -252
-33 -1481 -49 -1625 -21 -59 11 -153 14 -440 12 -201 -1 -390 2 -420 7 -30 5
-120 12 -200 16 -80 3 -190 10 -245 15 -175 16 -376 30 -505 35 -209 8 -258
23 -290 90 -11 23 -20 47 -20 53 0 7 -4 12 -9 12 -5 0 -13 15 -17 33 -4 17 -8
34 -9 37 -11 38 -16 58 -18 75 -6 32 -27 105 -53 183 -14 41 -27 86 -30 100
-2 15 -9 54 -14 87 -5 33 -11 69 -14 80 -6 32 -19 109 -21 125 -1 8 -6 31 -12
50 -6 19 -11 42 -11 50 0 8 -4 42 -11 74 -13 70 -14 186 -2 238 10 44 44 81
91 97 19 7 44 17 55 22 39 16 221 47 318 54 54 3 108 8 120 11 12 2 112 9 222
14 110 6 286 15 390 22 105 6 361 12 570 15 209 2 385 6 390 8 19 7 1990 -1
2015 -8z m1485 -850 c115 -28 194 -68 283 -145 137 -119 182 -251 131 -386
-22 -59 -17 -86 20 -105 24 -13 59 -3 66 19 10 33 100 105 170 136 187 84 279
84 520 3 87 -29 121 -48 211 -121 69 -55 108 -98 134 -147 31 -60 44 -181 25
-243 -10 -31 -72 -118 -104 -145 -25 -22 -25 -23 -8 -57 19 -40 49 -52 91 -36
29 11 217 16 233 7 4 -3 29 -8 55 -11 72 -10 187 -68 224 -113 77 -95 171
-274 199 -379 36 -133 28 -295 -20 -401 -27 -59 -100 -143 -124 -143 -10 0
-24 -15 -33 -33 -44 -92 -265 -270 -351 -284 -21 -3 -41 -12 -44 -20 -3 -7
-21 -20 -39 -28 -39 -16 -42 -32 -14 -62 16 -18 31 -21 88 -21 170 1 286 -84
338 -251 23 -73 29 -233 11 -318 -34 -156 -144 -319 -250 -371 -26 -13 -83
-29 -127 -36 -44 -7 -86 -19 -95 -26 -8 -7 -15 -29 -15 -50 0 -32 7 -43 52
-84 107 -97 133 -167 125 -331 -4 -94 -11 -129 -42 -221 -21 -60 -49 -131 -62
-159 -27 -53 -99 -144 -147 -185 -96 -82 -290 -190 -375 -210 -99 -23 -262 -7
-326 32 -41 24 -77 23 -103 -5 l-22 -24 24 -35 c87 -129 71 -341 -36 -459
-181 -201 -318 -318 -457 -388 -65 -34 -228 -62 -351 -61 -219 1 -400 49 -580
156 -80 47 -124 88 -151 142 -7 15 -21 36 -30 47 -9 11 -23 33 -31 49 -14 27
-13 33 17 100 44 97 48 109 46 124 -1 6 3 12 9 12 5 0 10 6 10 14 0 7 11 38
23 67 22 50 69 198 132 414 15 50 29 97 32 105 4 8 5 19 4 24 -1 4 2 13 7 20
19 23 90 233 101 297 6 36 20 93 32 125 11 32 23 70 26 84 4 21 16 65 59 207
2 7 13 14 26 17 153 29 195 43 277 94 103 65 201 150 251 217 63 85 156 276
234 480 80 211 96 256 100 277 3 13 5 23 6 23 1 0 3 8 5 17 2 10 12 46 24 81
43 136 56 216 55 342 -1 96 -24 207 -44 220 -5 3 -17 21 -26 40 -11 23 -43 53
-98 90 -44 30 -87 55 -94 55 -7 0 -20 4 -30 9 -89 48 -308 59 -437 23 -84 -24
-134 -45 -186 -78 l-39 -24 0 104 c0 57 -7 138 -14 180 -21 105 -95 331 -149
454 -84 187 -232 384 -345 458 -31 20 -78 57 -105 81 -26 24 -62 51 -80 58
-17 8 -41 21 -51 29 -18 15 -18 16 8 51 39 51 84 146 92 194 6 37 18 52 93
121 118 107 192 161 302 219 101 52 167 78 239 91 65 13 354 3 425 -13z
m-6125 -47 c100 -12 185 -39 295 -91 72 -35 155 -98 155 -119 0 -9 37 -24 59
-25 14 0 23 -22 40 -100 20 -90 43 -164 72 -231 l31 -71 -58 -54 c-117 -110
-158 -156 -198 -219 -59 -94 -72 -117 -111 -200 -20 -41 -40 -82 -45 -90 -29
-44 -118 -228 -114 -233 3 -3 1 -15 -5 -26 -7 -11 -16 -40 -21 -63 -10 -51
-38 -157 -47 -178 -3 -8 -7 -19 -8 -25 -1 -5 -10 -32 -19 -60 -10 -27 -22 -86
-28 -131 -14 -107 -16 -111 -64 -86 -44 22 -91 30 -237 39 -158 9 -261 -30
-367 -140 -61 -64 -145 -194 -154 -241 -3 -11 -14 -52 -27 -91 -18 -58 -22
-92 -21 -205 0 -74 6 -166 12 -205 7 -38 14 -79 15 -90 14 -81 33 -151 62
-220 74 -174 201 -383 273 -450 23 -22 56 -52 72 -68 85 -80 344 -246 413
-263 17 -4 24 -17 33 -57 6 -29 23 -104 37 -167 14 -63 29 -144 35 -180 10
-74 34 -203 48 -270 6 -25 13 -72 17 -105 4 -33 17 -100 31 -150 l24 -90 -25
-18 c-14 -10 -25 -24 -25 -31 0 -34 -100 -106 -196 -143 -62 -23 -82 -26 -193
-25 -107 2 -142 7 -258 37 -74 19 -146 43 -161 52 -117 73 -242 240 -295 393
-25 70 -30 101 -30 175 0 50 2 107 4 129 4 32 1 40 -16 46 -26 10 -46 -1 -134
-77 -83 -70 -116 -84 -258 -104 -92 -13 -88 -13 -283 21 -99 18 -185 59 -251
121 -35 32 -67 59 -70 59 -5 0 -31 46 -34 60 0 3 -7 16 -14 29 -9 17 -10 21
-1 16 9 -6 9 -2 1 14 -7 12 -9 26 -6 32 4 5 1 16 -5 24 -10 12 -10 15 1 15 9
0 10 3 4 8 -6 4 -10 21 -9 37 0 17 -3 38 -8 47 -4 9 -4 28 1 41 6 16 6 28 -1
35 -7 7 -7 16 0 28 6 11 7 27 2 40 -5 12 -7 24 -4 27 2 2 7 28 9 58 10 110 42
244 70 299 9 17 13 35 10 40 -3 6 -1 10 5 10 7 0 10 6 7 14 -3 8 1 20 9 26 8
7 14 19 14 26 0 8 4 14 9 14 5 0 14 12 20 28 16 41 92 130 129 152 17 11 32
25 33 32 0 7 2 21 4 30 5 25 -20 41 -52 35 -16 -3 -62 -18 -103 -33 -67 -25
-88 -28 -205 -29 -120 0 -133 2 -170 24 -22 13 -52 30 -66 38 -15 7 -38 25
-52 39 -15 15 -31 23 -38 18 -8 -4 -9 -3 -5 4 4 7 2 12 -4 12 -14 0 -41 26
-34 32 2 3 -3 11 -13 19 -15 12 -16 12 -8 -1 12 -22 -25 18 -71 76 -22 28 -47
67 -54 85 -8 19 -18 37 -22 40 -5 3 -10 16 -11 27 -1 12 -5 22 -9 22 -4 0 -7
3 -6 8 0 4 -1 14 -4 22 -29 80 -47 313 -26 327 5 3 7 11 4 19 -3 8 -1 14 4 14
5 0 7 7 4 15 -4 8 -2 15 3 15 9 0 48 94 48 115 0 5 9 19 20 30 11 12 36 41 55
65 109 138 289 277 425 329 33 13 74 30 92 37 65 29 150 52 218 58 89 9 105
14 105 32 0 17 -27 72 -44 90 -27 28 -46 55 -46 63 0 5 -11 18 -25 29 -14 11
-25 24 -25 30 0 6 -4 12 -8 14 -13 5 -72 95 -66 100 2 3 -2 11 -11 18 -8 7
-15 18 -15 24 0 6 -7 24 -15 39 -15 29 -40 241 -30 257 3 4 7 28 10 52 2 23 6
50 8 58 13 51 23 80 44 121 13 26 23 51 23 57 0 20 120 121 174 146 83 40 208
66 311 66 103 0 239 -32 360 -85 17 -7 72 -30 123 -51 58 -23 121 -58 170 -95
90 -68 117 -73 137 -27 7 18 11 37 7 42 -10 17 -2 167 14 243 19 92 74 224
120 286 35 48 110 103 174 126 19 7 44 17 55 21 11 5 56 12 100 18 44 5 82 10
85 10 3 1 44 -3 90 -8z m4922 -692 c68 -41 226 -157 278 -204 44 -40 102 -113
164 -207 54 -82 117 -235 186 -452 39 -125 50 -204 50 -372 0 -111 4 -174 11
-178 7 -5 6 -12 -4 -23 -8 -10 -18 -31 -21 -48 -9 -41 24 -84 64 -84 35 0 45
12 69 89 34 111 144 189 296 212 137 20 278 5 363 -39 75 -39 150 -116 158
-162 0 -3 6 -25 13 -49 38 -133 -1 -335 -147 -751 -45 -128 -91 -241 -113
-277 -11 -17 -22 -40 -23 -50 -9 -47 -105 -200 -158 -254 -59 -59 -158 -133
-217 -164 -59 -30 -161 -55 -223 -54 -33 1 -61 0 -63 -2 -2 -2 -6 -27 -9 -54
-6 -51 -18 -95 -67 -250 -15 -49 -35 -121 -44 -160 -27 -122 -47 -188 -71
-242 -13 -28 -24 -56 -24 -61 0 -11 -42 -145 -116 -369 -53 -159 -98 -279
-133 -358 -11 -22 -24 -54 -32 -71 -7 -17 -22 -35 -33 -40 -15 -7 -21 -18 -22
-44 0 -20 -11 -53 -26 -75 -92 -145 -118 -187 -147 -240 -96 -172 -248 -349
-406 -473 -79 -61 -238 -172 -248 -172 -2 0 -68 -39 -148 -86 -254 -153 -273
-161 -539 -234 -70 -19 -73 -20 -165 -55 -33 -13 -76 -26 -96 -29 -20 -3 -42
-8 -50 -10 -8 -3 -34 -8 -59 -10 -25 -3 -50 -13 -57 -22 -11 -14 -19 -15 -75
-4 -131 25 -220 30 -443 25 -131 -3 -284 -1 -355 5 -208 17 -272 18 -347 5
-68 -11 -73 -11 -73 5 0 19 -45 41 -110 55 -18 4 -77 30 -130 58 -52 28 -122
64 -155 81 -33 17 -64 34 -70 39 -5 4 -39 26 -74 50 -36 23 -111 85 -167 137
-56 52 -123 113 -148 135 -104 88 -243 271 -306 400 -133 275 -218 463 -265
590 -15 39 -33 86 -40 105 -8 19 -24 78 -36 130 -12 52 -32 136 -45 186 -13
51 -24 108 -24 128 0 20 -9 74 -20 119 -25 106 -51 241 -56 292 -4 42 -12 80
-51 234 -12 51 -23 103 -23 115 -1 36 -32 62 -135 111 -55 26 -131 67 -170 92
-38 25 -79 51 -90 58 -46 29 -185 175 -214 226 -18 29 -48 79 -67 109 -130
209 -188 420 -189 685 0 120 3 150 23 210 60 179 173 322 290 365 57 20 75 22
171 17 130 -7 175 -24 204 -80 10 -20 19 -53 19 -72 0 -56 67 -94 109 -62 15
11 18 29 35 207 10 106 24 207 32 229 5 14 15 44 21 66 5 22 27 94 47 160 20
66 36 126 37 134 1 21 153 326 210 421 77 129 142 205 245 291 85 70 97 77
120 68 26 -10 95 -16 277 -23 143 -6 576 -34 735 -48 79 -7 280 -11 485 -10
200 1 383 -2 426 -8 42 -6 109 -13 150 -17 109 -9 731 -9 904 0 269 14 288 15
460 22 162 6 201 10 348 36 34 6 86 13 116 16 36 2 73 14 105 32 28 16 54 29
58 30 4 0 31 -13 60 -31z m381 -5957 c167 -16 241 -37 385 -109 190 -95 234
-326 146 -767 -8 -44 -17 -89 -18 -100 -2 -11 -8 -45 -14 -75 -6 -30 -13 -75
-16 -100 -3 -25 -17 -106 -30 -180 -13 -74 -39 -216 -56 -315 -27 -154 -66
-353 -85 -433 -10 -44 -66 -176 -88 -206 -71 -103 -169 -190 -247 -220 -121
-48 -230 -45 -468 13 -64 16 -148 36 -187 45 -267 59 -368 88 -480 136 -11 5
-65 27 -120 50 -108 46 -295 132 -335 155 -14 9 -88 47 -165 86 -297 149 -357
198 -336 276 6 21 13 56 17 78 3 22 7 42 9 45 2 3 6 59 10 125 7 144 14 228
23 315 l7 65 60 -3 c41 -2 123 10 260 37 394 79 696 63 981 -53 103 -42 280
-136 336 -179 59 -45 73 -49 112 -30 32 15 33 17 20 41 -19 37 -332 219 -424
247 -14 4 -38 13 -55 20 -32 15 -150 49 -200 59 -16 4 -41 9 -55 11 -160 32
-449 32 -590 0 -14 -3 -59 -12 -100 -20 -41 -8 -118 -23 -170 -34 -111 -24
-172 -27 -165 -8 6 17 34 179 43 247 12 95 7 204 -11 228 -6 7 -7 15 -4 18 3
3 1 18 -4 33 -6 14 -12 41 -15 59 -2 18 -14 58 -25 90 -36 96 -34 102 41 123
36 11 92 29 125 40 33 12 92 30 130 40 75 20 203 59 297 91 51 17 66 17 145 8
63 -8 126 -8 223 -1 74 6 164 13 200 15 117 8 333 28 425 41 106 14 303 12
468 -4z m-3128 -228 c28 -4 174 -7 325 -8 439 -3 568 -16 614 -61 23 -24 73
-151 62 -161 -3 -3 -2 -11 3 -17 4 -6 16 -44 26 -84 16 -68 17 -154 1 -227 -2
-11 -7 -45 -11 -75 -4 -30 -13 -80 -20 -110 -7 -30 -16 -89 -20 -130 -4 -41
-10 -84 -12 -95 -3 -11 -7 -74 -9 -140 -5 -122 -19 -291 -28 -334 -16 -72 -39
-133 -61 -160 -43 -51 -72 -55 -380 -53 -285 2 -395 13 -472 48 -17 8 -40 14
-52 14 -20 0 -225 90 -268 117 -21 14 -65 93 -68 123 -1 8 -7 31 -13 50 -6 19
-13 46 -16 60 -28 142 -36 194 -42 260 -3 36 -7 71 -9 78 -3 7 0 23 6 34 8 15
8 22 0 27 -21 13 -19 496 2 576 3 11 10 42 17 70 12 52 73 142 119 174 53 37
138 44 306 24z"/>
<path d="M4805 8418 c-129 -11 -253 -49 -345 -106 -154 -96 -267 -260 -354
-513 -44 -130 -45 -153 -8 -167 69 -28 73 -27 147 44 75 71 161 134 210 151
99 36 200 56 335 67 199 16 275 27 331 50 86 35 125 65 154 119 69 125 2 264
-159 331 -34 14 -168 35 -206 33 -8 -1 -55 -5 -105 -9z m290 -97 c57 -25 109
-93 108 -141 -1 -50 -28 -98 -65 -118 -17 -10 -38 -24 -47 -32 -21 -19 -99
-39 -181 -45 -170 -13 -211 -18 -285 -31 -166 -30 -269 -68 -353 -129 -35 -26
-62 -40 -62 -32 0 7 4 17 9 23 6 5 12 21 15 36 12 70 143 276 216 341 75 66
236 131 363 146 103 12 234 3 282 -18z"/>
<path d="M6403 8389 c-115 -12 -186 -42 -251 -103 -67 -63 -82 -92 -82 -154 0
-68 41 -131 106 -162 45 -21 203 -44 269 -39 107 8 437 -22 505 -45 52 -18
140 -84 140 -105 0 -26 29 -61 52 -61 42 0 82 84 60 126 -5 11 -13 37 -17 59
-4 22 -11 46 -17 52 -6 7 -23 39 -38 70 -42 89 -81 135 -173 207 -98 76 -180
117 -291 146 -84 21 -130 23 -263 9z m312 -99 c156 -60 285 -170 346 -296 21
-45 39 -86 39 -93 0 -6 -23 4 -50 23 -30 20 -72 39 -103 45 -177 33 -259 41
-463 44 -208 4 -223 5 -262 27 -67 38 -67 109 2 173 64 60 125 85 231 96 151
15 178 13 260 -19z"/>
<path d="M4877 7780 c-9 -11 -25 -20 -34 -20 -40 -2 -151 -75 -192 -127 -23
-29 -41 -54 -41 -56 0 -2 -23 -46 -51 -96 -51 -92 -52 -93 -58 -204 -7 -126 2
-246 23 -286 7 -14 20 -39 27 -56 7 -16 36 -65 63 -109 83 -132 175 -173 361
-163 129 6 175 29 291 145 83 82 98 133 97 312 -1 135 -14 288 -27 308 -3 5
-7 19 -10 33 -29 153 -144 284 -282 320 -94 24 -145 24 -167 -1z m161 -70 c24
-4 54 -18 67 -30 13 -13 34 -28 46 -34 29 -15 76 -99 95 -172 25 -96 43 -263
39 -352 -4 -91 -25 -166 -61 -224 -26 -41 -53 -64 -39 -32 12 26 15 203 4 210
-5 3 -9 14 -9 25 0 11 -9 37 -20 59 -75 147 -301 201 -380 90 -10 -14 -33 -65
-50 -111 -42 -111 -46 -228 -12 -303 29 -64 28 -69 -5 -21 -14 22 -29 42 -33
45 -15 12 -49 80 -70 140 -18 51 -24 91 -26 192 -2 75 1 130 6 133 6 3 10 15
10 25 0 32 100 220 137 256 39 40 111 78 177 95 25 6 46 16 46 21 0 6 8 7 18
3 9 -3 36 -10 60 -15z m-11 -510 c75 -55 95 -177 55 -337 -23 -89 -29 -103
-51 -112 -53 -20 -87 -22 -101 -6 -7 8 -22 15 -34 15 -28 0 -77 52 -101 107
-26 61 -16 155 25 256 29 70 37 79 74 95 48 22 88 16 133 -18z"/>
<path d="M6418 7785 c-4 -5 -38 -9 -75 -10 -123 -5 -203 -61 -258 -180 -56
-120 -73 -302 -47 -480 40 -264 86 -339 257 -422 90 -43 106 -48 170 -48 85 0
149 28 210 90 38 39 115 158 115 177 0 4 4 16 10 26 26 47 40 94 50 167 14 94
6 240 -16 272 -7 12 -14 26 -14 31 0 5 -12 36 -27 68 -15 33 -27 61 -27 64 -1
3 -21 40 -45 83 -45 77 -59 91 -140 134 -43 24 -150 41 -163 28z m153 -94 c37
-23 90 -99 131 -189 55 -122 63 -158 63 -287 0 -118 -20 -188 -87 -307 -47
-85 -69 -105 -32 -30 20 40 23 63 24 147 0 108 -10 148 -53 216 -28 44 -97 98
-150 118 -16 6 -61 11 -100 11 -64 0 -77 -3 -117 -31 -70 -48 -110 -122 -110
-206 0 -40 -19 -54 -22 -16 0 15 -2 39 -4 53 -6 71 -7 101 0 170 14 139 50
225 122 295 46 46 102 65 184 65 23 0 40 5 40 11 0 16 73 3 111 -20z m-78
-436 c56 -45 81 -112 79 -215 -1 -97 -13 -132 -78 -233 -25 -38 -41 -73 -38
-79 14 -23 -76 4 -176 52 -21 10 -37 47 -60 137 -18 69 -19 87 -9 153 6 41 16
89 23 105 6 17 11 37 11 45 0 8 9 16 20 18 11 2 25 10 31 18 35 44 141 43 197
-1z"/>
<path d="M3787 7155 c-51 -13 -77 -30 -77 -52 0 -8 -25 -25 -55 -39 -60 -28
-206 -174 -253 -253 -96 -163 -82 -350 36 -497 54 -66 105 -96 213 -124 114
-30 197 -26 321 14 126 41 157 56 209 103 82 74 123 213 119 398 -1 10 -6 25
-11 32 -6 6 -8 21 -4 32 3 11 2 28 -3 38 -5 10 -19 37 -31 60 -12 23 -22 45
-21 48 1 20 -2 25 -15 25 -8 0 -15 7 -15 15 0 17 -65 79 -114 110 -17 10 -33
22 -36 25 -12 13 -110 52 -161 64 -44 10 -66 10 -102 1z m150 -100 c72 -33
190 -130 213 -174 31 -61 52 -149 53 -219 0 -73 -30 -188 -64 -247 -45 -76
-249 -169 -369 -169 -70 1 -176 36 -213 72 -70 67 -121 190 -111 270 14 110
33 157 101 241 96 119 184 185 258 197 51 7 63 18 45 39 -20 24 27 19 87 -10z"/>
<path d="M9094 7090 c-63 -31 -91 -53 -134 -105 -103 -121 -167 -270 -178
-407 -5 -74 3 -93 43 -101 39 -7 52 12 58 83 7 71 39 176 80 255 55 108 157
194 260 220 32 8 43 16 50 39 8 24 6 32 -9 43 -32 24 -87 15 -170 -27z"/>
<path d="M2605 6946 c-18 -13 -18 -15 -1 -40 18 -29 30 -35 121 -61 81 -23
171 -75 222 -127 46 -48 123 -181 123 -214 0 -28 47 -74 76 -74 55 0 63 67 19
167 -79 177 -241 308 -430 348 -87 18 -106 18 -130 1z"/>
<path d="M8082 6904 c-89 -24 -220 -102 -265 -159 -55 -69 -94 -156 -111 -249
-28 -153 -3 -274 72 -346 101 -97 277 -168 427 -173 63 -2 165 13 165 24 0 5
6 9 13 7 17 -3 57 12 57 22 0 5 9 11 19 15 24 7 97 82 93 96 -1 6 2 8 7 4 11
-6 42 56 46 90 1 11 9 44 18 73 12 39 15 74 11 130 -4 42 -6 86 -6 96 1 11 -4
28 -10 39 -7 15 -7 22 3 28 11 7 10 9 -3 9 -10 0 -16 7 -16 18 2 26 -37 100
-85 162 -59 76 -119 107 -233 120 -113 13 -137 12 -202 -6z m207 -85 c92 -15
114 -25 150 -69 116 -145 136 -397 41 -535 -67 -97 -150 -145 -257 -147 -87
-1 -144 8 -213 34 -159 62 -225 150 -216 288 6 99 19 152 47 200 5 8 13 24 18
35 5 12 16 27 25 34 9 7 16 19 16 26 0 30 158 125 207 125 10 0 25 5 33 10 20
13 68 12 149 -1z"/>
<path d="M5535 6570 c-144 -31 -187 -48 -275 -110 -47 -34 -96 -68 -110 -77
-14 -9 -59 -53 -99 -98 -71 -77 -110 -137 -145 -225 l-15 -38 -55 22 c-30 12
-61 27 -68 33 -30 23 -149 63 -238 81 -102 20 -219 22 -310 4 -226 -43 -276
-70 -387 -207 -64 -79 -80 -101 -135 -185 -80 -124 -93 -147 -121 -227 -63
-175 -70 -251 -43 -478 32 -265 39 -313 58 -390 12 -44 26 -111 33 -150 18
-98 109 -359 145 -418 16 -26 30 -50 30 -52 0 -4 52 -81 148 -219 84 -121 415
-466 447 -466 4 0 40 -29 79 -64 232 -208 424 -297 831 -388 105 -23 517 -16
715 12 36 5 126 17 200 26 74 9 151 24 170 32 19 9 52 16 73 18 21 1 49 9 62
18 13 9 31 13 39 10 9 -3 16 -2 16 4 0 5 10 7 23 5 12 -2 44 5 70 16 27 12 52
19 57 16 4 -3 13 1 19 9 6 7 29 16 50 20 22 3 41 9 43 14 1 4 37 30 78 57 41
27 80 53 86 59 152 143 220 221 304 346 8 13 24 35 35 49 36 47 115 166 115
174 0 4 5 13 10 20 19 23 80 117 80 123 0 4 16 29 35 55 19 27 35 54 35 59 0
6 5 10 10 10 6 0 10 7 10 15 0 8 3 15 8 15 4 0 16 19 27 43 11 23 26 48 33 55
6 8 10 18 7 23 -4 5 -1 9 5 9 6 0 18 15 26 33 8 17 26 52 39 76 14 24 25 48
25 53 0 5 9 29 20 53 11 25 19 48 19 52 -1 4 1 15 4 23 39 93 71 220 82 325 7
71 14 116 20 125 14 23 3 351 -16 480 -6 36 -10 72 -11 80 -1 43 -59 200 -92
249 -13 20 -44 68 -69 106 -45 70 -129 160 -199 213 -20 16 -88 46 -150 66
-103 35 -122 38 -217 37 -105 -1 -192 -17 -288 -52 -29 -10 -79 -28 -110 -40
-74 -26 -102 -39 -133 -60 -14 -9 -36 -20 -50 -24 -14 -4 -44 -25 -67 -47
l-42 -41 -7 39 c-3 22 -8 46 -9 54 -2 9 -17 52 -35 97 -69 180 -221 322 -439
414 -77 32 -84 33 -331 43 -44 2 -108 -4 -155 -14z m378 -81 c128 -22 267
-108 370 -229 57 -67 109 -188 125 -290 18 -115 18 -315 -1 -375 -72 -235
-232 -435 -424 -530 -102 -50 -153 -65 -271 -79 -96 -12 -114 -11 -192 6 -80
17 -221 75 -301 124 -43 27 -120 116 -141 164 -72 167 -106 295 -114 430 -15
273 79 470 301 629 117 83 183 118 250 131 33 7 76 16 95 20 51 11 236 11 303
-1z m1445 -385 c165 -46 245 -105 357 -264 100 -142 129 -225 150 -432 3 -31
8 -67 11 -80 9 -40 6 -307 -5 -361 -6 -29 -15 -86 -21 -127 -9 -64 -53 -226
-81 -295 -4 -11 -19 -51 -34 -88 -29 -75 -57 -128 -119 -227 -23 -35 -45 -72
-51 -82 -93 -160 -333 -522 -397 -597 -83 -99 -251 -271 -263 -271 -7 0 -20
-9 -30 -19 -26 -30 -171 -98 -245 -116 -36 -9 -101 -25 -145 -37 -110 -28
-242 -54 -355 -67 -99 -12 -240 -31 -276 -36 -80 -12 -429 -16 -499 -6 -328
48 -580 151 -756 308 -30 27 -79 67 -109 89 -94 70 -450 436 -450 463 0 6 -7
14 -15 17 -8 4 -15 11 -15 16 0 6 -11 23 -25 40 -14 16 -56 82 -94 146 -74
124 -137 283 -165 412 -48 231 -56 276 -86 500 -6 41 -12 85 -15 98 -17 90 -3
255 32 362 42 130 63 168 192 350 146 207 171 224 390 270 137 29 218 25 376
-22 51 -15 225 -87 245 -102 12 -9 15 -41 15 -181 0 -135 4 -182 18 -230 83
-278 101 -317 176 -398 32 -35 142 -117 155 -117 3 0 34 -13 69 -30 104 -49
145 -60 271 -71 170 -16 272 -8 370 30 44 17 84 35 90 41 5 5 17 10 26 10 36
0 176 114 252 205 72 88 71 85 106 144 37 60 79 150 88 190 22 95 32 172 27
208 -6 42 -4 44 63 114 50 51 90 82 146 110 94 47 279 116 362 134 84 18 197
18 264 -1z"/>
<path d="M7013 5418 c-20 -33 17 -88 90 -135 31 -20 37 -28 31 -46 -10 -31
-169 -355 -196 -398 -105 -169 -321 -405 -448 -489 -75 -49 -252 -140 -274
-140 -8 0 -18 -4 -21 -10 -3 -5 -18 -10 -32 -10 -14 0 -48 -7 -76 -15 -113
-31 -266 -40 -447 -25 -303 24 -557 90 -790 203 -158 77 -210 110 -286 183
-58 56 -144 172 -144 193 0 5 -19 47 -42 93 -24 46 -47 93 -53 104 -30 63 -61
120 -66 124 -3 3 -9 16 -12 30 -3 14 -10 42 -15 62 -8 31 -6 43 13 75 36 60
40 98 15 123 -15 15 -31 20 -53 18 -28 -3 -32 -7 -35 -37 -5 -46 -44 -105 -90
-136 -34 -22 -102 -47 -209 -75 -44 -11 -55 -30 -30 -54 32 -33 75 -28 230 26
32 11 60 18 61 16 1 -1 13 -28 25 -58 13 -30 54 -116 90 -190 157 -315 256
-417 545 -562 214 -107 435 -175 676 -207 41 -6 102 -14 135 -18 95 -13 372
-9 450 6 262 50 464 148 630 304 39 37 73 67 76 67 13 0 150 170 213 262 34
51 95 156 134 233 79 157 126 248 129 254 2 2 47 -17 102 -42 98 -47 164 -60
174 -34 8 21 -11 55 -35 62 -110 34 -273 125 -358 201 -60 53 -92 66 -107 42z"/>
</g>
</svg>
